<svg xmlns="http://www.w3.org/2000/svg" version="1.0"
  width="2cm" height="2cm" viewBox="0 0 142 142">
  <path fill="#ccc" d="m 84.242625,29.972185 0.38838,-1.1953 0.35848,-1.10565 0.26887,-1.016 0.20912,-0.95625 0.14938,-0.86658 0.11949,-0.83671 0.0897,-0.80683 0.0298,-0.77695 -0.0298,-0.71717 -0.0298,-0.71718 -0.0597,-0.71719 -0.11951,-0.68729 -0.11949,-0.68729 -0.14938,-0.65742 -0.14937,-0.65742 -0.20912,-0.62753 -0.23898,-0.62753 -0.239,-0.62754 -0.29875,-0.59765 -0.29875,-0.59764 -0.32861,-0.56777 -0.35849,-0.56777 -0.38837,-0.56776 -0.41825,-0.53789 -0.44811,-0.508 -0.41824,-0.47812 -0.478,-0.44824 -0.4481,-0.41834 -0.47799,-0.38849 -0.47799,-0.3585905 -0.47799,-0.3287 -0.50786,-0.26894 -0.50788,-0.23906 -0.50787,-0.23907 -0.53773,-0.17929 -0.53773,-0.14941 -0.53775,-0.11953 -0.53773,-0.0897 -0.56762,-0.0298 -0.56761,-0.0298 -0.71698,0.0298 -0.68711,0.0897 -0.32862,0.0598 -0.29875,0.0598 -0.32861,0.0897 -0.29875,0.0897 -0.26886,0.11954 -0.29875,0.11954 -0.26888,0.1494 -0.26887,0.14942 -0.23899,0.17929 -0.23899,0.1793 -0.23899,0.17929 -0.239,0.20918 -0.20912,0.20918 -0.20911,0.2390505 -0.17926,0.23907 -0.17924,0.23905 -0.14937,0.26895 -0.14937,0.26893 -0.14938,0.26895 -0.0897,0.26894 -0.11949,0.29883 -0.0897,0.29883 -0.0897,0.3287 -0.0598,0.32871 -0.0597,0.65742 -0.0298,0.71717 0,0.44823 0.0298,0.44825 0.0597,0.41836 0.0897,0.44823 0.11949,0.44824 0.1195,0.44823 0.14938,0.44824 0.17924,0.41836 0.20912,0.44823 0.20913,0.47813 0.26886,0.47812 0.26887,0.47812 0.29875,0.47811 0.32861,0.508 0.35849,0.508 0.38837,0.53788 0.65724,0.53789 0.71698,0.53788 0.71698,0.53789 0.71699,0.53788 0.77673,0.50801 0.77674,0.508 0.80661,0.53788 0.83647,0.508 0.83649,0.50801 0.86636,0.508 0.89623,0.508 0.89623,0.508 0.9261,0.50801 0.92611,0.47812 0.95598,0.508 0.95598,0.47812 z m -9.85853,33.49825 -0.77674,-4.9306 0.80662,-1.79295 0.74685,-1.73319 0.71698,-1.64354 0.68711,-1.58377 0.62736,-1.49411 0.59749,-1.40448 0.56762,-1.34471 0.53773,-1.28496 0.50786,-1.22517 0.478,-1.1953 0.47799,-1.19531 0.47799,-1.1654 0.44811,-1.16542 0.44812,-1.13553 0.44811,-1.13553 0.41824,-1.13555 -1.01573,-0.53788 -1.07547,-0.56777 -1.07548,-0.59765 -1.16509,-0.62753 -1.1651,-0.65741 -1.22486,-0.6873 -1.25472,-0.71718 -1.2846,-0.74706 -1.34434,-0.77694 -1.37423,-0.80683 -1.43397,-0.80683 -1.43397,-0.86659 -1.49372,-0.89647 -1.55346,-0.92637 -1.55347,-0.95623 -1.61321,-0.98612 -2.59907,-1.55389 -2.50945,-1.49412 -2.38995,-1.3746 -2.30032,-1.28495 -2.21071,-1.16541 -2.12108,-1.07577 -2.00158,-0.95623 -1.91196,-0.86661 -1.82234,-0.77693 -1.73271,-0.65742 -0.83648,-0.29883 -0.80661,-0.26895 -0.77673,-0.23904 -0.74687,-0.20918 -0.74686,-0.20919 -0.6871,-0.1494 -0.68712,-0.14942 -0.65724,-0.11953 -0.65723,-0.0897 -0.59748,-0.0598 -0.59749,-0.0298 -0.56762,-0.0298 -0.92609,0.0298 -0.92612,0.0598 -0.92609,0.0897 -0.89624,0.14941 -0.86637,0.1793 -0.86634,0.20917 -0.83649,0.23906 -0.80661,0.29882 -0.8066,0.32871 -0.80662,0.3586 -0.74686,0.38846 -0.77672,0.44824 -0.71699,0.47812 -0.71698,0.53789 -0.71699,0.53788 -0.65724,0.59765 -0.65722,0.62753 -0.62737,0.62754 -0.56762,0.65741 -0.50786,0.65742 -0.50786,0.65741 -0.44812,0.6873 -0.38837,0.6873 -0.35849,0.71717 -0.32862,0.71719 -0.26887,0.74705 -0.239,0.74706 -0.17924,0.74706 -0.14937,0.77695 -0.0897,0.80683 -0.0897,0.77694 0,0.83671 0,0.6873 0.0597,0.68729 0.11951,0.6873 0.14936,0.6873 0.17925,0.68729 0.20913,0.6873 0.26885,0.6873 0.32863,0.6873 0.32861,0.71717 0.41825,0.6873 0.41823,0.71718 0.478,0.71718 0.50786,0.6873 0.56762,0.71718 0.59748,0.71717 0.62736,0.71719 -0.26886,0.92635 -0.29875,0.8666 -0.32861,0.80682 -0.38838,0.74707 -0.38835,0.68728 -0.41825,0.65743 -0.239,0.26894 -0.23899,0.29883 -0.239,0.26894 -0.239,0.23905 -0.26886,0.23907 -0.23899,0.20917 -0.26887,0.1793 -0.26887,0.20918 -0.29874,0.1494 -0.29876,0.17931 -0.29874,0.11952 -0.29874,0.14942 -0.32861,0.0897 -0.32862,0.11953 -0.32862,0.0598 -0.32862,0.0897 -0.3585,0.0298 -0.35848,0.0598 -0.35849,0 -0.35849,0.0298 -0.4182496,-0.0298 -0.41824,-0.0298 -0.38836,-0.0298 -0.35849,-0.0897 -0.38839,-0.0897 -0.35848,-0.11952 -0.35849,-0.11954 -0.32863,-0.14941 -0.3584797,-0.1793 -0.29875,-0.17928 -0.32861,-0.23907 -0.29875,-0.20918 -0.29874,-0.26894 -0.29875,-0.26894 -0.26887,-0.29882 -0.26887,-0.29883 -0.26886,-0.32871 -0.23899,-0.35858 -0.20913,-0.3586 -0.20912,-0.35858 -0.20912,-0.38848 -0.17925,-0.38846 -0.14937,-0.41837 -0.11948,-0.41835 -0.14939,-0.44824 -0.0897,-0.41835 -0.0897,-0.47811 -0.0897,-0.47812 -0.0598,-0.47813 -0.0298,-0.47812 -0.0298,-0.508 0,-0.53788 0,-0.53789 0.0298,-0.53788 0.0598,-0.56777 0.0597,-0.56777 0.0897,-0.56776 0.1195,-0.56777 0.1195,-0.59765 0.14937,-0.62754 0.17925,-0.59765 0.20911,-0.62752 0.20912,-0.65742 0.20913,-0.6574 0.53773,-1.31484 0.59749,-1.37459 0.68712,-1.40449 0.71699,-1.37459 0.7767197,-1.37459 0.86635,-1.3746 0.89624,-1.34471 0.9559796,-1.34471 1.01573,-1.3447 1.10535,-1.31484 0.65723,-0.77694 0.65724,-0.74706 0.65724,-0.71718 0.68712,-0.71718 0.68711,-0.65742 0.6871,-0.65741 0.6871,-0.62753 0.71699,-0.59765 0.71699,-0.59766 0.71699,-0.53787 0.71698,-0.5378905 0.74685,-0.508 0.74686,-0.47812 0.74686,-0.47812 0.74686,-0.41836 0.77674,-0.41836 0.77673,-0.38846 0.77674,-0.35859 0.77672,-0.3586 0.77674,-0.29882 0.80661,-0.29883 0.77673,-0.26894 0.80661,-0.20918 0.80662,-0.23905 0.8066,-0.17931 0.83649,-0.1494 0.8066,-0.14941 0.83648,-0.11953 0.83649,-0.0598 0.83647,-0.0897 0.83649,-0.0298 0.86636,0 0.68711,0 0.68711,0.0298 0.71698,0.0597 0.68711,0.0598 0.68711,0.0897 0.71699,0.0897 0.68711,0.1494 0.71698,0.14943 0.68711,0.1494 0.71699,0.1793 0.68711,0.20917 0.71699,0.23906 0.71698,0.23907 0.6871,0.26894 0.71698,0.26894 0.68712,0.29882 0.74686,0.32871 0.71699,0.35859 0.77673,0.38846 0.80661,0.44825 0.80661,0.44823 0.83648,0.47813 0.86636,0.53788 0.86636,0.5378905 1.8522,1.19529 1.94183,1.34472 2.00159,1.46423 2.15095,1.61365 -2.71857,-7.1717905 0.71699,-0.98611 0.74686,-0.89648 0.74686,-0.80682 0.74685,-0.77695 0.38838,-0.35858 0.38837,-0.32872 0.38836,-0.3287 0.38836,-0.29883 0.41825,-0.29883 0.38836,-0.26894 0.41825,-0.26895 0.38837,-0.23905 0.41824,-0.20918 0.41824,-0.20918 0.41824,-0.20917 0.44812,-0.17931 0.4481,-0.1494 0.44812,-0.1793 0.44812,-0.11952 0.44811,-0.11953 0.478,-0.11953 0.47798,-0.0897 0.478,-0.0897 0.47798,-0.0598 1.01572,-0.0897 1.01575,-0.0298 0.92609,0.0298 0.86636,0.0598 0.86636,0.1195299 0.86637,0.14942 0.80659,0.20917 0.80661,0.23906 0.80661,0.29883 0.77674,0.3287 0.74685,0.38847 0.71698,0.41835 0.71699,0.47813 0.68712,0.508 0.68711,0.56777 0.65723,0.59766 0.62737,0.6574 0.59748,0.6873 0.59749,0.74706 0.53773,0.74706 0.50786,0.77695 0.47799,0.80682 0.41825,0.8068306 0.41824,0.83671 0.35849,0.89647 0.29874,0.89648 0.29875,0.89647 0.23899,0.95625 0.20912,0.95623 0.14938,0.98612 0.14937,1.01601 0.0897,1.04589 0.0598,1.04588 0.0298,1.10566 -0.0298,0.89646 -0.0598,0.98613 -0.1195,1.04589 -0.14936,1.13553 -0.0897,0.62753 -0.0897,0.65742 -0.14936,0.74706 -0.1195,0.77693 -0.17924,0.8666 -0.14938,0.89648 -0.20911,0.98612 -0.17926,1.01601 1.28461,0.68729 1.25472,0.6873 1.19498,0.59764 1.19497,0.56777 1.16509,0.50801 1.10536,0.44823 1.07547,0.41835 1.045609,0.3586 1.01573,0.29882 1.01573,0.26895 1.015716,0.23906 1.01573,0.17928 0.98586,0.14943 0.95598,0.0897 0.98585,0.0598 0.95598,0.0298 0.86636,-0.0298 0.83649,-0.0298 0.83647,-0.0598 0.80661,-0.11954 0.77673,-0.11952 0.77674,-0.14941 0.74686,-0.17929 0.74685,-0.23907 0.68711,-0.23906 0.717,-0.26894 0.6871,-0.29881 0.65724,-0.32871 0.62737,-0.3586 0.62735,-0.38847 0.59749,-0.41836 0.59749,-0.44823 0.56761,-0.44825 0.50787,-0.47812 0.50786,-0.508 0.44812,-0.508 0.41823,-0.508 0.38837,-0.53789 0.32861,-0.53788 0.29876,-0.56776 0.29873,-0.56777 0.20913,-0.56777 0.20912,-0.59765 0.17924,-0.59764 0.11951,-0.62753 0.0897,-0.65742 0.0597,-0.62754 0,-0.65742 0,-0.44823 -0.0597,-0.47812 -0.0598,-0.41835 -0.0897,-0.44823 -0.11949,-0.44824 -0.14938,-0.44824 -0.17924,-0.44825 -0.20913,-0.41834 -0.239,-0.44824 -0.23897,-0.41835 -0.29875,-0.41836 -0.29876,-0.41836 -0.35848,-0.44824 -0.3585,-0.41834 -0.38837,-0.38848 -0.41824,-0.41836 -0.8066,-0.80682 -0.71699,-0.74706 -0.59749,-0.71717 -0.47799,-0.65742 -0.20911,-0.29883 -0.17924,-0.29883 -0.14938,-0.29882 -0.1195,-0.26895 -0.0897,-0.26893 -0.0897,-0.26895 -0.0298,-0.23906 -0.0298,-0.23906 0.0298,-0.65742 0.0298,-0.65741 0.0597,-0.65741 0.11949,-0.62752 0.11951,-0.5976606 0.11949,-0.59766 0.17924,-0.59765 0.20912,-0.56776 0.20912,-0.56776 0.26888,-0.53789 0.26887,-0.53788 0.29875,-0.50801 0.35849,-0.508 0.35848,-0.47813 0.3585,-0.47811 0.41824,-0.44824 0.44812,-0.44823 0.44811,-0.41835 0.44811,-0.38848 0.47799,-0.35859 0.47799,-0.3287 0.50787,-0.29883 0.50786,-0.26894 0.50786,-0.2390699 0.53775,-0.20917 0.56761,-0.1793 0.5676,-0.14941 0.56763,-0.11953 0.59748,-0.11953 0.62736,-0.0598 0.59749,-0.0598000041 0.65724,0 0.62736,0 0.62736,0.0598000041 0.59749,0.0598 0.59748,0.11953 0.56761,0.11953 0.56762,0.14941 0.53774,0.1793 0.53774,0.20917 0.50786,0.2390699 0.50787,0.26894 0.50785,0.29883 0.478,0.3287 0.44811,0.35859 0.44813,0.38848 0.44811,0.41835 0.41824,0.44823 0.38836,0.44824 0.35851,0.47811 0.35848,0.47813 0.32862,0.508 0.26887,0.53789 0.26887,0.53788 0.23899,0.56776 0.239,0.56778 0.17925,0.59765 0.17924,0.62753 0.1195,0.62753 0.11949,0.6275406 0.0897,0.6574 0.0597,0.6873 0.0598,0.6873 0,0.68729 0,0.59765 -0.0298,0.59765 -0.0597,0.56777 -0.0598,0.59765 -0.0897,0.56777 -0.0897,0.56777 -0.1195,0.59765 -0.1195,0.56777 -0.17925,0.59765 -0.14937,0.56776 -0.20911,0.56777 -0.20913,0.56776 -0.239,0.59765 -0.23899,0.56777 -0.26887,0.56776 -0.26886,0.56777 -0.29876,0.56777 -0.32861,0.56777 -0.32862,0.56777 -0.35849,0.56777 -0.35849,0.53788 -0.38838,0.56777 -0.41824,0.53788 -0.41823,0.56776 -0.44812,0.5379 -0.47799,0.53787 -0.47799,0.56778 -0.47798,0.53788 -1.04561,1.04588 -1.10536,1.07578 -0.77672,0.68729 -0.77674,0.65741 -0.77674,0.65743 -0.77673,0.62753 -0.8066,0.59764 -0.77674,0.59765 -0.8066,0.53788 -0.8365,0.53788 -0.80659,0.53789 -0.80662,0.47811 -0.83647,0.47813 -0.83649,0.47812 -0.83649,0.41835 -0.86635,0.41836 -0.83648,0.38847 -0.86636,0.38848 -0.86635,0.3287 -0.86636,0.3287 -0.86636,0.29884 -0.86635,0.26894 -0.89624,0.26894 -0.86635,0.23906 -0.89624,0.20918 -0.89623,0.17929 -0.89622,0.17929 -0.89623,0.14941 -0.89624,0.11954 -0.92611,0.0897 -0.89622,0.0897 -0.92611,0.0598 -0.89623,0.0298 -0.9261,0 -0.86635,0 -0.86638,-0.0598 -0.896216,-0.0598 -0.9261,-0.0897 -0.92611,-0.14942 -0.955979,-0.14941 -0.95598,-0.1793 -0.98585,-0.20917 -0.98586,-0.23906 -1.01572,-0.26895 -1.01573,-0.26894 -1.01574,-0.3287 -1.04559,-0.35859 -1.04561,-0.3586 -1.04561,-0.38847 -1.07547,-0.41835 -0.59748,1.22518 -0.62736,1.25506 -0.65724,1.34471 -0.65723,1.34472 -0.68711,1.40448 -0.717,1.46424 -0.74685,1.49412 -0.74686,1.5539 -0.80661,1.58376 -0.77674,1.61365 -0.83648,1.64354 -0.83648,1.67342 -0.86635,1.7033 -0.86636,1.76307 -0.89624,1.76307 -0.89623,1.82282 z m -3.70443,4.66167 3.70443,1.22518 0.62736,-1.1953 0.59748,-1.13553 0.62736,-1.10565 0.65724,-1.07578 0.62737,-1.016 0.65722,-0.98612 0.65724,-0.92636 0.65725,-0.89646 0.65723,-0.83672 0.68711,-0.8367 0.65724,-0.74707 0.71698,-0.74706 0.68711,-0.6574 0.68711,-0.65743 0.71699,-0.59765 0.71697,-0.56777 0.71699,-0.50799 0.74686,-0.47813 0.74687,-0.44823 0.77673,-0.41835 0.80661,-0.38847 0.80659,-0.3586 0.83649,-0.3287 0.83648,-0.26895 0.86637,-0.26893 0.86635,-0.2092 0.89624,-0.17928 0.9261,-0.1793 0.92611,-0.0897 0.95598,-0.0897 0.955979,-0.0598 0.98585,-0.0298 1.25472,0.0298 1.224836,0.0897 1.22486,0.14942 1.16511,0.1793 1.16509,0.23906 1.13522,0.29882 1.10536,0.35859 1.07547,0.38847 0.50786,0.23906 0.53775,0.20918 0.50787,0.26895 0.50786,0.26894 0.50786,0.26894 0.47799,0.29882 0.50787,0.29883 0.47799,0.29882 0.92609,0.6873 0.92611,0.71718 0.86636,0.77695 0.86636,0.8367 0.83647,0.89648 0.74687,0.89647 0.71699,0.92635 0.6871,0.95625 0.5975,0.98612 0.56761,1.016 0.50786,1.04589 0.44812,1.04588 0.38836,1.10565 0.35849,1.10566 0.26887,1.16542 0.239,1.16541 0.20912,1.1953 0.11949,1.22519 0.0897,1.25506 0.0298,1.28494 -0.0298,1.37459 -0.0897,1.3746 -0.14937,1.34472 -0.17924,1.31482 -0.239,1.31483 -0.32861,1.28495 -0.3585,1.28494 -0.38836,1.25507 -0.47799,1.22518 -0.53775,1.22518 -0.5676,1.19531 -0.62737,1.19529 -0.68711,1.16542 -0.74685,1.16541 -0.80662,1.13554 -0.86635,1.10565 -0.89624,1.10564 -0.95597,1.07577 -1.01573,1.0459 -1.07548,1.01599 -1.10535,1.015995 -1.1651,0.98613 -1.19498,0.95625 -1.28459,0.92635 -1.31448,0.89648 -1.34435,0.89647 -1.43396,0.83671 -1.46384,0.83671 -1.523586,0.80682 -1.55347,0.77695 -1.613219,0.77694 -1.67296,0.74707 -0.29876,0.11953 -0.38836,0.14941 -0.41824,0.1793 -0.50787,0.20917 -1.07546,0.47812 -1.04561,0.44823 -1.01573,0.47813 -0.98586,0.47811 -0.95598,0.47812 -0.89622,0.47812 -0.89623,0.47812 -0.8365,0.47813 -0.80659,0.47812 -0.77674,0.47811 -0.74686,0.50801 -0.71698,0.47811 -0.65724,0.47813 -0.62736,0.508 -0.62736,0.47812 -0.56762,0.50799 -0.53774,0.47813 -0.47799,0.50799 -0.47799,0.50801 -0.41824,0.50801 -0.38836,0.47811 -0.38838,0.508 -0.32861,0.50801 -0.26886,0.508 -0.26887,0.508 -0.20913,0.508 -0.20912,0.53789 -0.14937,0.508 -0.11949,0.50801 -0.0897,0.508 -0.0597,0.53788 0,0.508 0,0.56777 0.0597,0.56777 0.0598,0.53788 0.0897,0.53789 0.1195,0.50799 0.1195,0.50801 0.17924,0.508 0.20913,0.47813 0.20911,0.47811 0.239,0.44824 0.26887,0.44823 0.29874,0.41836 0.32862,0.44824 0.35849,0.38848 0.38836,0.38846 0.38838,0.38847 0.41824,0.3586 0.44811,0.35857 0.44812,0.32872 0.44811,0.26894 0.47799,0.26895 0.50786,0.26894 0.50787,0.20918 0.50785,0.20917 0.56763,0.1793 0.53774,0.14941 0.56761,0.11952 0.59749,0.11953 0.59748,0.0897 0.5975,0.0598 0.62735,0.0298 0.65724,0 0.62737,0 0.59748,-0.0298 0.62736,-0.0897 0.59749,-0.0598 0.59749,-0.11953 0.56761,-0.11952 0.56761,-0.1793 0.56762,-0.1793 0.56761,-0.17928 0.53774,-0.23907 0.53773,-0.23905 0.53775,-0.29883 0.53774,-0.29883 0.50785,-0.3287 0.50787,-0.3287 0.47799,-0.3586 0.50786,-0.38847 0.448119,-0.41836 0.44812,-0.41835 0.41823,-0.41835 0.38838,-0.44824 0.38837,-0.47812 0.35849,-0.47812 0.32861,-0.47813 0.32862,-0.508 0.298746,-0.50801 0.26886,-0.53787 0.26886,-0.5379 0.239,-0.56775 0.239,-0.56777 0.17924,-0.59765 0.17925,-0.59765 0.14937,-0.74706 0.14938,-0.89648 0.11949,-1.04588 0.11951,-1.25505 0.0597,-0.68731 0.11949,-0.65742 0.17925,-0.59765 0.17925,-0.56776 0.1195,-0.23907 0.14936,-0.26893 0.11951,-0.23906 0.17924,-0.20919 0.14937,-0.23904 0.17924,-0.20919 0.17926,-0.1793 0.20912,-0.17929 0.20912,-0.1793 0.239,-0.17928 0.20911,-0.14942 0.26887,-0.11954 0.50787,-0.26894 0.56761,-0.17928 0.62737,-0.17931 0.65723,-0.0897 0.71697,-0.0897 0.74686,0 0.41825,0 0.41824,0.0298 0.41824,0.0298 0.41824,0.0897 0.38837,0.0598 0.38837,0.11954 0.38836,0.11954 0.3585,0.11952 0.35849,0.1494 0.3585,0.17931 0.35848,0.17929 0.32862,0.20917 0.32862,0.23907 0.32862,0.23905 0.29874,0.23907 0.32863,0.26894 0.29874,0.29883 0.26886,0.29881 0.23899,0.32872 0.239,0.29883 0.239,0.3287 0.17924,0.32871 0.17924,0.3287 0.17926,0.35859 0.1195,0.3586 0.11948,0.35858 0.11952,0.35858 0.0897,0.3586 0.0597,0.38848 0.0298,0.38846 0.0298,0.38847 0.0298,0.41837 -0.0298,0.38847 0,0.41835 -0.0598,0.38846 -0.0597,0.41836 -0.0897,0.38849 -0.0897,0.38846 -0.1195,0.41835 -0.11949,0.38847 -0.14938,0.38848 -0.14936,0.38846 -0.20912,0.38849 -0.17924,0.38847 -0.20913,0.38847 -0.239,0.35858 -0.26887,0.38848 -0.26887,0.38847 -0.59747,0.74706 -0.65724,0.74707 -0.717,0.71718 -0.80659,0.71717 -0.86637,0.71718 -0.95598,0.71718 -0.98585,0.6873 -1.10535,0.68728 -1.10535,0.65743 -1.16511,0.62753 -1.19497,0.56777 -1.19498,0.53788 -1.25472,0.50801 -1.28459,0.41835 -1.314476,0.41835 -1.31447,0.35859 -1.374229,0.32871 -1.4041,0.26894 -1.43395,0.23907 -1.43397,0.20917 -1.49373,0.14941 -1.52359,0.0897 -1.55346,0.0597 -1.58335,0.0298 -1.58334,-0.0298 -1.58334,-0.0597 -1.58333,-0.0897 -1.58335,-0.14941 -1.58334,-0.17929 -1.55348,-0.20919 -1.55346,-0.26893 -1.55348,-0.29883 -1.52358,-0.35858 -1.55346,-0.38848 -1.5236,-0.41836 -1.5236,-0.47811 -1.52359,-0.50801 -1.52358,-0.53788 -1.49373,-0.59765 -1.49372,-0.62753 -1.49371,-0.65741 -1.46385,-0.71719 -1.43397,-0.71717 -1.40409,-0.77695 -1.40409,-0.77695 -1.34435,-0.8367 -1.34436,-0.83671 -1.31447,-0.89647 -1.25472,-0.92636 -1.25472,-0.92636 -1.22484,-0.98612 -1.22485,-1.016 -1.1651,-1.0459 -1.13523,-1.07576 -1.13523,-1.10565 -1.10535,-1.13553 -0.9261,-1.04589 -0.92612,-1.04589 -0.89622,-1.10565 -0.86636,-1.10565 -0.83649,-1.10565 -0.8066,-1.16542 -0.8066,-1.16542 -0.74687,-1.1953 -0.74685,-1.1953 -0.71698,-1.22518 -0.65724,-1.25506 -0.65725,-1.25507 -0.62735,-1.31483 -0.59749,-1.28494 -0.56761,-1.34472 -0.56761,-1.34471 -0.50788,-1.37459 -0.47798,-1.34471 -0.44812,-1.374585 -0.41824,-1.3746 -0.38837,-1.37459 -0.35849,-1.3746 -0.29874,-1.40446 -0.29876,-1.37461 -0.23899,-1.40448 -0.23898,-1.40446 -0.17925,-1.37461 -0.14937,-1.40446 -0.11949,-1.43436 -0.0597,-1.40448 -0.0598,-1.40448 -0.0298,-1.43436 0.0298,-0.95624 0,-0.98612 0.0598,-0.92634 0.0298,-0.95625 0.0897,-0.89649 0.0597,-0.92636 0.0897,-0.89646 0.11949,-0.89648 0.1195,-0.86659 0.14938,-0.86659 0.14935,-0.86659 0.17925,-0.83671 0.17925,-0.83671 0.20913,-0.83671 0.20911,-0.80683 0.23899,-0.77695 0.23899,-0.80682 0.239,-0.77695 0.29876,-0.74706 0.26887,-0.74705 0.29873,-0.74706 0.32862,-0.71719 0.32862,-0.71717 0.3585,-0.71719 0.35849,-0.68729 0.35848,-0.6873 0.38838,-0.6873 0.41824,-0.65742 0.41824,-0.62753 0.41824,-0.6574 0.44812,-0.62754 0.47799,-0.59765 0.478,-0.59765 0.47797,-0.59765 0.478,-0.56776 0.50786,-0.53789 0.50786,-0.508 0.50786,-0.508 0.53774,-0.47812 0.53774,-0.47813 0.53774,-0.44823 0.53774,-0.41834 0.56762,-0.41838 0.53773,-0.38847 0.56762,-0.35858 0.59748,-0.35858 0.56761,-0.32872 0.5975,-0.3287 0.62737,-0.29883 0.59748,-0.26894 0.62736,-0.23906 0.62736,-0.23905 0.62736,-0.23908 0.62736,-0.17928 0.65724,-0.1793 0.65723,-0.17929 0.68712,-0.14942 0.65722,-0.11952 0.68712,-0.0897 0.68711,-0.0897 0.71698,-0.0598 0.68713,-0.0598 0.71697,-0.0298 0.71699,0 1.07547,0.0298 1.01573,0.0598 1.01573,0.0897 0.98586,0.14941 0.95598,0.17929 0.9261,0.23906 0.9261,0.26894 0.86636,0.32871 0.86635,0.32871 0.8365,0.41835 0.8066,0.41836 0.8066,0.508 0.74686,0.50801 0.74687,0.56776 0.71698,0.59765 0.68711,0.65741 0.68711,0.6873 0.62737,0.6873 0.5676,0.74705 0.53774,0.74707 0.47799,0.77694 0.44812,0.80683 0.41825,0.83671 0.35848,0.8367 0.32862,0.8666 0.26887,0.89647 0.23899,0.92636 0.20913,0.95625 0.14937,0.98611 0.0897,0.98612 0.0597,1.016 0.0298,1.0459 0,0.53788 -0.0597,0.6873 -0.0597,0.80683 -0.11949,0.89648 -0.0597,0.26893 0,0.1793 z" />
</svg>
