<svg version="1" xmlns="http://www.w3.org/2000/svg" width="933.333" height="933.333" viewBox="0 0 700.000000 700.000000"><path d="M146.2 1.5c-28.6 6.2-50.4 26.8-58.5 55.2l-2.2 7.8-.3 250.5c-.2 166.8.1 253.7.7 260.2 3 28.2 18.5 50.2 43.4 61.9 12.5 5.8 15 6.2 44.7 6.8l27.5.6.5 22.2c.5 20.5.7 22.4 2.6 25 3.7 5 8.1 7.3 13.9 7.3 5.1 0 6.5-.7 36.1-18.6 16.9-10.2 31.4-18.4 32.3-18.1.9.2 15.5 8.8 32.4 19.1 26.2 15.8 31.5 18.6 34.8 18.6 8 0 14.8-5.1 16.8-12.5.6-2.2 1.1-12.7 1.1-23.8V644h88.1c97.6 0 95 .2 109.7-6.6 25.7-11.7 41.2-33.6 44.3-62.2.6-6.5.9-93.4.7-260.2l-.3-250.5-2.2-7.6c-8.2-28.8-30.1-49.4-58.8-55.4C547 .2 522.7 0 349.3.1 186.7.1 151.4.4 146.2 1.5zm280.1 142.7l-22.4 52.3 6 12.2L416 221l40.1.2 40.1.3-92.6 103c-50.9 56.6-94 104-95.7 105.2-4.5 3.2-9.3 3-12.9-.6-3.8-3.8-4.5-7.1-2.7-12.3.8-2.4 14.1-33.7 29.5-69.5l28-65.3-36.6-.2-36.5-.3 85.7-94.8c47.1-52.1 85.8-94.7 86-94.7.2 0-9.7 23.5-22.1 52.2zm152.1 362c-2.8 9.2-11.9 18.3-22.6 22.6-4 1.6-17.8 1.7-188.4 2.2l-184.1.5-3.7 2.9c-7.5 5.7-9.2 14.6-4.4 22.4 3.2 5.2 8.3 7.2 18.3 7.2h8.5v47h-23.4c-20.5 0-24.2-.2-29.8-2-12.2-3.8-23.3-14.4-27.5-26.3-1.6-4.6-1.8-9-1.8-37.2 0-28.6.2-32.5 1.8-36.8l1.9-4.7h455.9l-.7 2.2zm2.4 60c-.4 9.2-1 13.6-2.5 17.5-4.7 11.9-15.1 21.6-27.1 25.3-6.2 1.9-9.5 2-92.8 2H372v-47h89.9c99.4 0 96.7.2 110.6-6.5 3.9-1.8 7.4-3.4 7.9-3.4.4-.1.6 5.4.4 12.1z"/></svg>