<svg xmlns="http://www.w3.org/2000/svg" width="2cm" height="2cm" viewBox="0 0 142 142">
  <path fill-opacity=".2" d="M 84.242625,29.972185 C 87.228467,23.146976 86.065229,14.129933 79.672045,9.6520945 75.964036,6.7216723 68.775053,7.5420776 67.990885,12.939445 c -0.709028,5.148839 3.018499,9.704879 7.34917,11.98287 2.850996,1.875432 5.856807,3.516441 8.90257,5.04987 z m -9.85853,33.49825 c -0.365104,-2.547026 -1.335586,-5.165816 0.340767,-7.445014 2.753917,-6.319086 5.447515,-12.667913 7.874673,-19.120506 -14.486595,-7.305098 -27.48,-17.448398 -42.66059,-23.36809 -7.358366,-3.298471 -16.739874,-2.116724 -22.295113,3.983288 -5.173973,4.802489 -5.996779,13.361363 -1.514957,18.906762 1.140981,1.593819 3.14715,2.957918 1.584545,4.995572 -1.329548,4.651336 -7.299126,7.236114 -11.3235843,4.268158 C 1.3761598,41.830936 2.4725314,34.403201 4.7146913,29.30009 9.4982297,18.395519 18.169374,8.0628108 30.080085,4.9309145 c 8.957596,-2.4061071 18.291138,0.8571614 25.608023,6.0813685 2.280957,1.485514 4.45016,3.133091 6.626407,4.765942 C 61.620236,13.299803 59.899492,10.683869 59.82694,8.2887369 63.431781,2.6469723 70.526633,-0.43163898 77.064326,1.3538057 86.14145,3.5808613 90.851235,13.697338 90.103909,22.445473 c -0.221359,3.15378 -0.89942,6.247253 -1.470134,9.349622 7.764878,4.620028 17.817845,7.909473 26.408945,3.52628 5.38771,-2.457326 9.26611,-9.611877 5.73585,-15.03089 -2.05093,-3.167001 -6.80915,-5.528019 -5.42363,-9.978145 0.74885,-6.8668091 8.09447,-11.9384042 14.77408,-9.9534755 6.91709,1.6170431 9.84228,9.7175075 8.33495,16.1066605 -2.12467,10.041159 -10.73509,17.211195 -19.38848,21.84408 -9.43819,4.947168 -20.910355,5.241257 -30.720552,1.177962 -2.570814,-1.8826 -2.754432,2.324732 -3.979915,3.860734 -3.269171,6.737578 -6.658129,13.418133 -9.990928,20.122134 z m -3.70443,4.66167 c 2.375611,1.162412 4.438734,1.61551 5.123117,-1.447284 3.988491,-7.461522 10.558537,-14.521144 19.436221,-15.384534 9.348947,-1.450571 19.324077,2.990732 23.986517,11.333368 6.52453,11.599519 2.65251,26.903577 -6.72174,35.79921 -6.70783,6.974295 -15.821886,10.560005 -24.437235,14.492985 -5.237337,2.8503 -11.704001,6.44261 -12.54725,12.969 -0.605471,6.59494 5.956354,11.75309 12.223128,11.14616 7.851367,0.0132 14.533137,-7.16015 14.395017,-14.94122 -0.18777,-3.93227 3.83561,-6.33205 7.40879,-5.67788 5.28222,0.20697 9.02696,6.15718 6.90473,11.01361 -2.78209,6.60987 -9.85081,10.22234 -16.31715,12.38357 C 82.146673,144.8784 62.236593,139.54106 47.698814,128.21823 29.60203,114.10367 20.604998,88.796073 26.704425,66.548065 29.589153,56.19309 38.059203,46.332364 49.379075,45.689975 c 8.587283,-1.12107 17.835042,3.804386 20.55357,12.25186 1.082442,3.269066 1.295473,6.802875 0.74702,10.19027 z" />
</svg>
