<svg xmlns="http://www.w3.org/2000/svg" version="1.1" viewBox="0 0 90 90" width="90" height="90">
  <metadata>
  Sources:
  Book by Oksana Latysheva from the Noun Project
  Lightning by Arthur Shlain from the Noun Project
  </metadata>
  <rect x="0" y="0" width="90" height="90" rx="15" fill="#F7F8F6" />
  <path fill="#ffcc00"
     d="m 69.23067,-8e-6 -48.46134,0 C 15.38238,-8e-6 11,4.344992 11,9.685992 l 0,57.367004 0,6.103 c 0,5.341 4.38238,9.686 9.76933,9.686 l 5.18321,0 0,4.961 c 0,0.762 0.41453,1.464 1.08424,1.838 0.67073,0.372 1.4887,0.359 2.14732,-0.037 l 7.61596,-4.593 7.73497,4.68 c 0.33889,0.206 0.72216,0.309 1.10644,0.309 0.35806,0 0.71712,-0.089 1.03987,-0.269 0.67072,-0.373 1.08627,-1.076 1.08627,-1.839 l 0,-5.05 21.46306,0 c 5.38695,0 9.76933,-4.345 9.76933,-9.686 l 0,-9.781 0,-10.325 0,-0.085 0,-10.325 0,-32.954004 c 0,-5.341 -4.38238,-9.686 -9.76933,-9.686 z" />
  <path fill="#669900"
     d="m 15.25227,9.685992 c 0,-3.016 2.4741,-5.47 5.51706,-5.47 l 2.3682,0 0,52.838004 c 0,0.302 0.0666,0.588 0.18154,0.848 l -3.08834,0 c -1.83364,0 -3.54019,0.539 -4.97846,1.457 l 0,-49.673004 z" />
  <path fill="#669900"
     d="m 74.74773,42.639996 0,10.326 c 0,2.721 -2.23305,4.936 -4.97846,4.936 l -42.56203,0 c 0.11498,-0.26 0.18155,-0.546 0.18155,-0.848 l 0,-52.838004 41.84188,0 c 3.04195,0 5.51706,2.454 5.51706,5.47 l 0,32.954004 z" />
  <path fill="#669900"
     d="m 43.51534,84.135996 -5.60683,-3.392 c -0.67778,-0.409 -1.53106,-0.413 -2.21287,-10e-4 l -5.49184,3.312 0,-11.527 13.31154,0 0,11.608 z" />
  <path fill="#ffcc00"
     d="M 58.865722,6.110132 C 58.296475,5.7471884 57.549081,5.8470257 57.09788,6.3495212 L 32.27648,33.928859 c -0.364046,0.404864 -0.456159,0.986236 -0.234973,1.483763 0.221737,0.496988 0.715405,0.817455 1.259819,0.817455 l 11.698604,0 -7.450277,17.38381 c -0.265313,0.619981 -0.04357,1.341454 0.524559,1.70495 0.228904,0.145617 0.486501,0.216777 0.742427,0.216777 0.379501,0 0.755683,-0.156655 1.025405,-0.456159 l 24.8214,-27.579336 C 65.02749,27.095245 65.119613,26.513872 64.898427,26.016345 64.67668,25.518819 64.183012,25.19834 63.638599,25.19834 l -11.698605,0 7.450287,-17.3838043 C 59.655595,7.1945521 59.433851,6.4736285 58.865722,6.110132 Z" />
  <path d="m 69.23067,-8e-6 -48.46134,0 C 15.38238,-8e-6 11,4.344992 11,9.685992 l 0,57.367004 0,6.103 c 0,5.341 4.38238,9.686 9.76933,9.686 l 5.18321,0 0,4.961 c 0,0.762 0.41453,1.464 1.08424,1.838 0.67073,0.372 1.4887,0.359 2.14732,-0.037 l 7.61596,-4.593 7.73497,4.68 c 0.33889,0.206 0.72216,0.309 1.10644,0.309 0.35806,0 0.71712,-0.089 1.03987,-0.269 0.67072,-0.373 1.08627,-1.076 1.08627,-1.839 l 0,-5.05 21.46306,0 c 5.38695,0 9.76933,-4.345 9.76933,-9.686 l 0,-9.781 0,-10.325 0,-0.085 0,-10.325 0,-32.954004 c 0,-5.341 -4.38238,-9.686 -9.76933,-9.686 z m -53.9784,9.686 c 0,-3.016 2.4741,-5.47 5.51706,-5.47 l 2.3682,0 0,52.838004 c 0,0.302 0.0666,0.588 0.18154,0.848 l -3.08834,0 c -1.83364,0 -3.54019,0.539 -4.97846,1.457 l 0,-49.673004 z m 28.26307,74.450004 -5.60683,-3.392 c -0.67778,-0.409 -1.53106,-0.413 -2.21287,-10e-4 l -5.49184,3.312 0,-11.527 13.31154,0 0,11.608 z m 31.23239,-10.98 c 0,3.016 -2.4741,5.47 -5.51706,5.47 l -21.46306,0 0,-6.098 22.00166,0 c 1.83364,0 3.54019,-0.539 4.97846,-1.457 l 0,2.085 z m 0,-9.78 c 0,2.721 -2.23305,4.936 -4.97846,4.936 l -45.45975,0 c -1.17401,0 -2.12613,0.944 -2.12613,2.108 0,1.164 0.95212,2.108 2.12613,2.108 l 1.64201,0 0,6.098 -5.18321,0 c -3.04195,0 -5.51706,-2.454 -5.51706,-5.47 l 0,-6.103 c 0,-2.721 2.23305,-4.936 4.97846,-4.936 l 49.53955,0 c 1.83364,0 3.54019,-0.539 4.97846,-1.457 l 0,2.716 z m 0,-20.736 0,10.326 c 0,2.721 -2.23305,4.936 -4.97846,4.936 l -42.56203,0 c 0.11498,-0.26 0.18155,-0.546 0.18155,-0.848 l 0,-52.838004 41.84188,0 c 3.04195,0 5.51706,2.454 5.51706,5.47 l 0,32.954004 z" />
  <rect fill-opacity="0.5"
     x="14.282995" y="59.999393"
     width="61.366768" height="4.7467937"
     />
  <rect fill-opacity="0.5"
     x="-60.2005" y="14.535534"
     width="57.07362" height="3.7880721"
     transform="matrix(0,-1,1,0,0,0)"
     />
  <rect fill-opacity="0.5" 
     x="28.67767" y="71.31218"
     width="15.909904" height="3.7880721"
     />
  <path fill-opacity="0.5"
     d="M 57.9375,5.90625 C 57.623096,5.948653 57.323257,6.0983616 57.097656,6.3496094 L 32.277344,33.929688 c -0.364046,0.404864 -0.457514,0.984894 -0.236328,1.482421 0.221737,0.496988 0.715351,0.81836 1.259765,0.81836 l 2.240235,0 22.189453,-24.541016 1.660156,-3.8749999 C 59.655939,7.1944695 59.433363,6.4728715 58.865234,6.109375 58.580611,5.9279032 58.251904,5.8638467 57.9375,5.90625 Z" />
  <path fill-opacity="0.5"
     d="m 52.052734,25.199219 -0.160156,0.06836 1.607422,3.125 10.361328,0 L 64.664062,27.5 c 0.364047,-0.404874 0.455562,-0.986848 0.234376,-1.484375 -0.221748,-0.497526 -0.715353,-0.816406 -1.259766,-0.816406 l -11.585938,0 z" />
</svg>
