<svg xmlns="http://www.w3.org/2000/svg" version="1.1" viewBox="0 0 100 100" width="100" height="100">
  <defs>
    <linearGradient id="linearGradient4374">
      <stop stop-color="#7a0707" offset="0.15" />
      <stop stop-color="#a60f0f" offset="0.29" />
    </linearGradient>
  </defs>
  <metadata>
  Sources:
  Book by Jordan Delcros from the Noun Project
  Success Electricity by Ben Davis from the Noun Project
  </metadata>
  <g id="lightbulb">
    <rect x="45.1" y="40.3" width="12.13" height="9.21" fill="#cecece" />
    <path d="m 44.2,51.8 14,0 c 1.4,0 2.4,-1.2 2.4,-2.4 l 0,-9.3 c 0,-1.2 -1,-2.4 -2.4,-2.4 l -14,0 c -1.5,0 -2.4,1.2 -2.4,2.4 l 0,9.3 c 0,1.2 0.9,2.4 2.4,2.4 z m 2.3,-4.7 0,-4.7 9.4,0 0,4.7 -9.4,0 z"
       fill="#222222" />
    <path d="m 52.4,56.5 -2.4,0 c -1.4,0 -2.8,-0.7 -3.7,-2.1 0,-0.3 -0.3,-0.3 -0.3,-0.3 l -1.6,-3.5 c -0.2,-0.9 -0.2,-1.6 0,-2.3 0.5,-0.7 1.2,-1.2 1.9,-1.2 l 9.8,0 c 0.7,0 1.4,0.5 1.9,1.2 0.2,0.7 0.5,1.4 0,2.3 l -1.9,3.5 c 0,0.3 0,0.3 -0.2,0.3 -0.7,1.4 -2.1,2.1 -3.5,2.1"
       fill="#222222" />
    <path d="m 53.1,0.2 -1.9,0 -1.6,0 c -9,1.1 -16,8.4 -16.9,17.6 -0.8,6.1 1.4,11.9 5.6,16.2 1.9,1.8 3.3,4.2 3.7,6.5 0.3,1.2 1.2,1 2.4,1 l 13.6,0 c 1.2,0 2.1,0.2 2.3,-1 0.5,-2.3 1.9,-4.7 3.8,-6.5 4.2,-4.3 6.3,-10.1 5.6,-16.2 C 68.8,8.6 61.8,1.3 53.1,0.2 Z"
       fill="#f4da70" />
    <path d="m 53.1,0.2 c -0.7,0 -1.2,0 -1.9,0 -0.7,0 -1.2,0 -1.6,0 -9,1.1 -16,8.4 -16.9,17.6 -0.8,6.1 1.4,11.9 5.6,16.2 1.9,1.8 3.3,4.2 3.7,6.5 0.3,1.2 1.2,1.9 2.4,1.9 l 13.6,0 c 1.2,0 2.1,-0.7 2.3,-1.9 0.5,-2.3 1.9,-4.7 3.8,-6.5 4.2,-4.3 6.3,-10.1 5.6,-16.2 C 68.8,8.6 61.8,1.3 53.1,0.2 Z M 46,37.7 c -0.7,-2.6 -2.3,-4.9 -4.4,-7 -3.3,-3.3 -5,-7.8 -4.5,-12.5 1,-7 6.3,-12.4 12.9,-13.3 0.3,0 0.7,0 1.2,0 0.5,0 0.9,0 1.2,0 6.8,0.9 11.9,6.3 12.9,13.3 0.4,4.7 -1.2,9.2 -4.5,12.5 -2.1,2.1 -3.7,4.4 -4.4,7 l -10.4,0 z"
       fill="#222222" />
    <path d="m 47.97,11.61 a 6.818,7.358 0 0 1 9.09,-0.55 6.818,7.358 0 0 1 1.49,9.7"
       fill="none" stroke="#ffffff" stroke-width="4" stroke-linecap="round" />
  </g>
  <g id="book">
    <rect x="31.8" y="87.2" width="37.38" height="8.877" fill="#ffffff" />
    <path d="m 36.1,46.1 c -2.4,0 -4.4,0.7 -5.8,2.3 C 28.8,49.8 28,51.8 28,54 l 0,0.2 0,32 44,0 0,-37.4 c 0,-1.4 -1.3,-2.7 -2.8,-2.7 l -33.1,0 z"
       fill="url(#linearGradient4374)" />
    <path d="m 69.2,46.1 -33.1,0 c -2.4,0 -4.4,0.7 -5.8,2.3 -1.5,1.4 -2.3,3.4 -2.3,5.6 0,0.1 0,0.1 0,0.2 l 0,37.1 c 0,0.1 0,0.3 0,0.4 0,0.1 0,0.1 0,0.1 0,4 2.8,8.2 8.1,8.2 l 33.1,0 c 1.5,0 2.8,-1.3 2.8,-2.7 l 0,-48.5 c 0,-1.4 -1.3,-2.7 -2.8,-2.7 z m -2.7,48.4 -30.4,0 c -2.5,0 -2.7,-2.2 -2.7,-2.7 0,-0.6 0.2,-2.6 2.7,-2.6 l 30.4,0 0,5.3 z m 0,-10.7 -30.4,0 c -1,0 -1.9,0.1 -2.7,0.3 l 0,-29.8 c 0,0 0,-0.1 0,-0.1 0,-0.8 0.3,-1.4 0.7,-2 0.5,-0.4 1.2,-0.6 2,-0.6 l 30.4,0 0,32.2 z"
       fill="#222222" />
    <path d="m 40.6,62.1 18.2,0 c 1.4,0 2.7,-1.2 2.7,-2.7 0,-1.5 -1.3,-2.8 -2.7,-2.8 l -18.2,0 c -1.6,0 -2.8,1.3 -2.8,2.8 0,1.5 1.2,2.7 2.8,2.7 z"
       fill="#222222" />
    <path d="m 40.6,71.8 18.2,0 c 1.4,0 2.7,-1.3 2.7,-2.8 0,-1.5 -1.3,-2.7 -2.7,-2.7 l -18.2,0 c -1.6,0 -2.8,1.2 -2.8,2.7 0,1.5 1.2,2.8 2.8,2.8 z"
       fill="#222222" />
  </g>
</svg>
